# xmcd
#
# Track frame offsets: 
#        183
#        14158
#        31315
#        54043
#        64873
#        83595
#        96195
#        126740
#        135775
#        161988
#        174058
#        200830
#        214305
#        226560
#        244675
#        258528
#
# Disc length: 3617 seconds
#
# Revision: 10
# Processed by: cddbd v1.5.2PL0 Copyright (c) Steve Scherf et al.
# Submitted via: ExactAudioCopy v0.99pb5
#
DISCID=d80e1f10
DTITLE=Various Artist - Blues Collection Vol. 2
DYEAR=1990
DGENRE=Blues
TTITLE0=Jeff Beck - Jeff's Blues
TTITLE1=John Lee Hooker - Blues Before Sunrise
TTITLE2=Sonny Terry and Brownie McGhee - Drinking In The Blues
TTITLE3=Muddy Waters  - Diamonds At Your Feet
TTITLE4=Eric Clapton  - They Call It Stormy Monday
TTITLE5=Howlin Wolf - Ain't Superstitious
TTITLE6=Big Joe Turner - How Long Blues
TTITLE7=Jeff Beck  - I Ain't Got You
TTITLE8=B.B. King  - Guess Who
TTITLE9=Jimmy Reed - Honest I Do
TTITLE10=Otis Rush and Little Walther - It's Hard For Me To Believe, Bab
TTITLE10=y
TTITLE11=Memphis Slim - Everyday I Have The Blues
TTITLE12=Elmore James - Mean Mistreatin' Mama
TTITLE13=Nina Simone - Blues For Mama
TTITLE14=Howlin Wolf - Highway 49
TTITLE15=Muddy Waters - Forty Days And Forty Nights
EXTD=YEAR: 1990
EXTT0=
EXTT1=
EXTT2=
EXTT3=
EXTT4=
EXTT5=
EXTT6=
EXTT7=
EXTT8=
EXTT9=
EXTT10=
EXTT11=
EXTT12=
EXTT13=
EXTT14=
EXTT15=
PLAYORDER=
